<svg version="1.2" xmlns="http://www.w3.org/2000/svg" viewBox="0 0 66 66" width="66" height="66">
	<title>modo oscuro-svg</title>
	<style>
		.s0 { fill: #ffffff } 
	</style>
	<g id="Layer">
		<g id="Layer">
			<g id="Layer">
				<path id="Layer" fill-rule="evenodd" class="s0" d="m35.9 65.3c-18.1 0-32.9-14.6-32.9-32.7 0-17.8 14.6-32.6 32.4-32.6q0 0 0.1 0c0.7 0 1.4 0.3 1.7 1 0.4 0.6 0.3 1.4-0.2 2-3.9 5.1-6 11.1-6 17.5 0 15.9 13 28.8 28.9 28.8h0.3c0.7 0 1.5 0.4 1.8 1.1 0.4 0.7 0.3 1.5-0.2 2.1-6.2 8.1-15.7 12.8-25.9 12.8zm-4.4-61.3c-13.8 2.2-24.5 14.2-24.5 28.5 0 15.9 13 28.8 28.9 28.8 7.6 0 14.7-3 20.1-8.2-16.3-1.9-29-15.8-29-32.6 0-5.9 1.6-11.5 4.5-16.5z"/>
			</g>
			<g id="Layer">
				<path id="Layer" class="s0" d="m37.3 58.5c-13.1 0-24.3-9.4-26.5-22.3-0.1-0.6 0.3-1.1 0.8-1.2 0.5-0.1 1.1 0.3 1.2 0.8 2 12 12.4 20.7 24.5 20.7 0.6 0 1 0.4 1 1 0 0.5-0.4 1-1 1z"/>
			</g>
			<g id="Layer">
				<path id="Layer" class="s0" d="m11.4 34c-0.5 0-1-0.5-1-1 0-0.5 0-1 0-1.5 0-0.5 0.4-1 1-1 0.5 0 1 0.5 1 1 0 0.4 0 0.9 0 1.4 0 0.5-0.4 1.1-0.9 1.1q-0.1 0-0.1 0z"/>
			</g>
			<path id="Layer" class="s0" d="m40.4 20.2c-1 0-1.8-0.8-1.8-1.8 0-0.9 0.8-1.7 1.8-1.7 1 0 1.8 0.8 1.8 1.7 0 1-0.8 1.8-1.8 1.8z"/>
			<path id="Layer" class="s0" d="m52 11.7c-1 0-1.8-0.8-1.8-1.8 0-1 0.8-1.8 1.8-1.8 1 0 1.8 0.8 1.8 1.8 0 1-0.8 1.8-1.8 1.8z"/>
			<path id="Layer" class="s0" d="m48.1 27.6c-1 0-1.8-0.8-1.8-1.7 0-1 0.8-1.8 1.8-1.8 1 0 1.8 0.8 1.8 1.8 0 0.9-0.8 1.7-1.8 1.7z"/>
		</g>
	</g>
	<g id="Layer">
	</g>
	<g id="Layer">
	</g>
	<g id="Layer">
	</g>
	<g id="Layer">
	</g>
	<g id="Layer">
	</g>
	<g id="Layer">
	</g>
	<g id="Layer">
	</g>
	<g id="Layer">
	</g>
	<g id="Layer">
	</g>
	<g id="Layer">
	</g>
	<g id="Layer">
	</g>
	<g id="Layer">
	</g>
	<g id="Layer">
	</g>
	<g id="Layer">
	</g>
	<g id="Layer">
	</g>
</svg>